<svg width="512" height="512" x="0" y="0" viewBox="0 0 509.833 509.833" style="enable-background:new 0 0 512 512" xml:space="preserve" class=""><g><path fill="#38bdf8" d="M149.625 361.885c-13.195 13.195-34.588 13.195-47.782 0-13.195-13.195-13.195-34.587 0-47.782l135.311-135.311 11.175-75.637 37.978-37.978c51.135-51.135 134.041-51.135 185.176 0 51.135 51.135 51.135 134.041 0 185.176l-13.962 13.962-203.432 198.436c-14.168 14.168-37.139 14.168-51.308 0-14.168-14.168-14.168-37.139 0-51.308l.003-.018-.01.011c-14.168 14.168-37.14 14.168-51.308 0s-14.168-37.139 0-51.308" data-original="#f9c2ca" class=""></path><path fill="#0ea5e9" d="M474.432 68.23 154.514 414.15c14.244 11.38 35.069 10.48 48.264-2.714l.01-.01-.003.018c-14.168 14.168-14.168 37.139 0 51.308 14.168 14.168 37.14 14.168 51.308 0l203.431-198.436 13.962-13.962c50.131-50.131 51.108-130.794 2.946-182.124z" data-original="#f9a7b0" class=""></path><path fill="#059669" d="M335.168 472.094c-14.551 14.551-38.144 14.551-52.695 0l-26.655-26.655c-14.551-14.551-14.551-38.144 0-52.695 14.551-14.551 38.144-14.551 52.695 0l26.655 26.655c14.552 14.551 14.552 38.143 0 52.695zM387.865 419.397c-14.551 14.551-38.144 14.551-52.695 0l-47.18-47.18c-14.551-14.551-14.551-38.144 0-52.695 14.551-14.551 38.144-14.551 52.695 0l47.18 47.18c14.551 14.551 14.551 38.144 0 52.695z" data-original="#b35324" class=""></path><path fill="#10b981" d="M440.56 366.702c-14.551 14.551-38.144 14.551-52.695 0l-33.429-33.429c-14.551-14.551-14.551-38.144 0-52.695 14.551-14.551 38.144-14.551 52.695 0l33.429 33.429c14.551 14.551 14.551 38.144 0 52.695z" data-original="#e68a2e" class=""></path><path fill="#047857" d="m335.165 419.402-47.18-47.18c-14.406-14.406-14.541-37.667-.424-52.25l99.853 99.853c-14.583 14.118-37.844 13.983-52.249-.423z" data-original="#8a3000" class=""></path><path fill="#059669" d="m105.611 310.338-69.152-65.475c-48.612-48.612-48.612-127.427 0-176.039 48.612-48.612 127.427-48.612 176.039 0l93.566 90.778c16.505 15.971 16.722 42.368.482 58.608-16.053 16.053-42.081 16.053-58.134 0l-13.559-13.559c-6.483-6.483-16.993-6.485-23.478-.004z" data-original="#b35324" class=""></path><path fill="#047857" d="m105.611 310.338-69.152-65.393c-48.612-48.612-48.612-127.427 0-176.039l.023-.022 155.374 155.374z" data-original="#8a3000" class=""></path></g></svg>